<svg width="50" height="61" viewBox="0 0 50 61" fill="none" xmlns="http://www.w3.org/2000/svg">
<g clip-path="url(#clip0_12_6413)">
<path d="M29.3708 37.8632C28.9402 38.5348 28.4442 39.218 27.8824 39.913C25.5916 42.749 23.0934 45.3498 20.5236 47.8986C18.6118 49.7946 16.6876 51.6784 14.7512 53.5496C12.3772 55.8448 10.438 57.6466 8.85803 60.1806C8.85675 60.183 8.85623 60.1856 8.85649 60.1882C8.85677 60.1908 8.85785 60.1934 8.85957 60.1954C8.86131 60.1974 8.86361 60.1988 8.86617 60.1996C8.86875 60.2002 8.87147 60.2002 8.87399 60.1992C10.7521 59.4978 12.3369 58.5478 13.9703 57.4116C19.1893 53.784 24.4866 49.765 29.189 45.4236C30.4228 44.284 31.5846 43.0762 32.686 41.8092C34.209 40.0562 36.04 37.651 35.449 35.2084C34.7742 32.42 31.3938 32.137 29.078 32.241C27.4306 32.3154 25.8 32.5222 24.1864 32.8618C19.8766 33.767 15.5842 34.7042 11.2293 35.3794C10.3208 35.52 9.40849 35.6292 8.49253 35.7074C8.48723 35.7078 8.48191 35.7068 8.47717 35.7044C8.47245 35.702 8.46849 35.6984 8.46575 35.6938C8.46301 35.6892 8.46159 35.6838 8.46167 35.6784C8.46173 35.673 8.46329 35.6678 8.46617 35.6632C10.2452 32.992 12.373 30.486 14.4967 28.08C17.7703 24.3718 21.1682 20.78 24.6906 17.3047C27.245 14.7857 30.0442 12.4425 32.9204 10.2935C34.578 9.05509 36.3104 7.93111 38.1178 6.92149C39.4204 6.19391 40.7084 5.60619 42.198 5.23413C43.1116 5.00607 45.1554 4.75803 45.4384 5.99203C45.6478 6.90357 45.3156 8.01493 44.9946 8.87137C44.158 11.1017 42.9916 13.1742 41.5128 15.0427C39.7616 17.2565 37.83 19.2064 35.7716 21.2128C35.1584 21.8102 34.7486 22.3516 34.3436 23.042C34.3296 23.066 34.3362 23.0746 34.363 23.0682C34.9234 22.9326 35.5532 22.8216 36.0566 22.6038C36.28 22.5078 36.5134 22.3914 36.7572 22.2546C40.6138 20.0888 43.8846 17.2809 46.5696 13.8308C48.7544 11.0245 51.0736 6.64037 48.9784 3.13197C44.4882 -4.38779 30.4408 4.53685 25.955 7.90263C19.9994 12.3701 14.394 17.3626 9.27763 22.6356C7.05269 24.9286 4.89295 27.387 3.04115 30.012C1.26703 32.5282 -0.717938 36.295 0.661552 39.3996C1.91134 42.2122 5.36111 42.9302 8.13257 42.7586C10.0953 42.6372 12.0352 42.235 13.9717 41.754C18.1795 40.708 22.3082 39.3824 26.5236 38.3702C27.4568 38.1466 28.3982 37.9658 29.3478 37.828C29.3812 37.8234 29.3888 37.8352 29.3708 37.8632Z" stroke="#C4C4C4" stroke-width="2"/>
<path d="M29.3478 37.828C28.3982 37.9658 27.4568 38.1466 26.5236 38.3702C22.3082 39.3824 18.1795 40.708 13.9717 41.754C12.0352 42.235 10.0953 42.6372 8.13257 42.7586C5.36111 42.9302 1.91134 42.2122 0.661552 39.3996C-0.717938 36.295 1.26703 32.5282 3.04115 30.012C4.89295 27.387 7.05269 24.9286 9.27763 22.6356C14.394 17.3626 19.9994 12.3701 25.955 7.90263C30.4408 4.53685 44.4882 -4.38779 48.9784 3.13197C51.0736 6.64037 48.7544 11.0245 46.5696 13.8308C43.8846 17.2809 40.6138 20.0888 36.7572 22.2546C36.5134 22.3914 36.28 22.5078 36.0566 22.6038C35.5532 22.8216 34.9234 22.9326 34.363 23.0682C34.3362 23.0746 34.3296 23.066 34.3436 23.042C34.7486 22.3516 35.1584 21.8102 35.7716 21.2128C37.83 19.2064 39.7616 17.2565 41.5128 15.0427C42.9916 13.1742 44.158 11.1017 44.9946 8.87137C45.3156 8.01493 45.6478 6.90357 45.4384 5.99203C45.1554 4.75803 43.1116 5.00607 42.198 5.23413C40.7084 5.60619 39.4204 6.19391 38.1178 6.92149C36.3104 7.93111 34.578 9.05509 32.9204 10.2935C30.0442 12.4425 27.245 14.7857 24.6906 17.3047C21.1682 20.78 17.7703 24.3718 14.4967 28.08C12.373 30.486 10.2452 32.992 8.46617 35.6632C8.46329 35.6678 8.46173 35.673 8.46167 35.6784C8.46159 35.6838 8.46301 35.6892 8.46575 35.6938C8.46849 35.6984 8.47245 35.702 8.47717 35.7044C8.48191 35.7068 8.48723 35.7078 8.49253 35.7074C9.40849 35.6292 10.3208 35.52 11.2293 35.3794C15.5842 34.7042 19.8766 33.767 24.1864 32.8618C25.8 32.5222 27.4306 32.3154 29.078 32.241C31.3938 32.137 34.7742 32.42 35.449 35.2084C36.04 37.651 34.209 40.0562 32.686 41.8092C31.5846 43.0762 30.4228 44.284 29.189 45.4236C24.4866 49.765 19.1893 53.784 13.9703 57.4116C12.3369 58.5478 10.7521 59.4978 8.87399 60.1992C8.87147 60.2002 8.86875 60.2002 8.86617 60.1996C8.86361 60.1988 8.86131 60.1974 8.85957 60.1954C8.85785 60.1934 8.85677 60.1908 8.85649 60.1882C8.85623 60.1856 8.85675 60.183 8.85803 60.1806C10.438 57.6466 12.3772 55.8448 14.7512 53.5496C16.6876 51.6784 18.6118 49.7946 20.5236 47.8986C23.0934 45.3498 25.5916 42.749 27.8824 39.913C28.4442 39.218 28.9402 38.5348 29.3708 37.8632C29.3888 37.8352 29.3812 37.8234 29.3478 37.828Z" fill="#DD8560"/>
</g>
<defs>
<clipPath id="clip0_12_6413">
<rect width="50" height="60.4" fill="white"/>
</clipPath>
</defs>
</svg>
