<svg width="20" height="15" viewBox="0 0 20 15" fill="none" xmlns="http://www.w3.org/2000/svg">
<path d="M1.0661 0.00507373C0.734519 0.0581268 0.437593 0.240727 0.240644 0.512705C0.0436943 0.784683 -0.0371459 1.12376 0.0159072 1.45534C0.0689602 1.78692 0.251561 2.08385 0.523539 2.2808C0.795516 2.47775 1.13459 2.55859 1.46617 2.50553H5.21687L5.44191 3.13065L6.4671 6.25623L7.49228 9.3818C7.5923 9.70686 8.01738 10.0069 8.34244 10.0069H17.0941C17.4441 10.0069 17.8442 9.70686 17.9442 9.3818L19.9696 3.13065C20.0696 2.80559 19.9196 2.50553 19.5695 2.50553H8.46746L7.51729 0.705203C7.41609 0.498563 7.25982 0.323859 7.0657 0.200329C6.87158 0.0767982 6.64714 0.00923328 6.41709 0.00507373L1.41616 0.00507373C1.3413 -0.00169124 1.26598 -0.00169124 1.19112 0.00507373C1.14116 0.00207047 1.09106 0.00207047 1.0411 0.00507373L1.0661 0.00507373ZM8.96756 12.5074C8.26743 12.5074 7.71733 13.0575 7.71733 13.7576C7.71733 14.4577 8.26743 15.0078 8.96756 15.0078C9.66769 15.0078 10.2178 14.4577 10.2178 13.7576C10.2178 13.0575 9.66769 12.5074 8.96756 12.5074ZM16.4689 12.5074C15.7688 12.5074 15.2187 13.0575 15.2187 13.7576C15.2187 14.4577 15.7688 15.0078 16.4689 15.0078C17.1691 15.0078 17.7192 14.4577 17.7192 13.7576C17.7192 13.0575 17.1691 12.5074 16.4689 12.5074Z" fill="#676767"/>
</svg>
