<svg width="100" height="100" viewBox="0 0 100 100" fill="none" xmlns="http://www.w3.org/2000/svg">
<circle cx="50" cy="50" r="50" fill="white"/>
<g clip-path="url(#clip0_12_6411)">
<path d="M54.3708 57.8632C53.9402 58.5348 53.4442 59.218 52.8824 59.913C50.5916 62.749 48.0934 65.3498 45.5236 67.8986C43.6118 69.7946 41.6876 71.6784 39.7512 73.5496C37.3771 75.8448 35.4379 77.6466 33.858 80.1806C33.8567 80.183 33.8562 80.1856 33.8565 80.1882C33.8568 80.1908 33.8578 80.1934 33.8596 80.1954C33.8613 80.1974 33.8636 80.1988 33.8662 80.1996C33.8687 80.2002 33.8715 80.2002 33.874 80.1992C35.7521 79.4978 37.3369 78.5478 38.9702 77.4116C44.1893 73.784 49.4866 69.765 54.189 65.4236C55.4228 64.284 56.5846 63.0762 57.686 61.8092C59.209 60.0562 61.04 57.651 60.449 55.2084C59.7742 52.42 56.3938 52.137 54.078 52.241C52.4306 52.3154 50.8 52.5222 49.1864 52.8618C44.8766 53.767 40.5842 54.7042 36.2293 55.3794C35.3207 55.52 34.4085 55.6292 33.4925 55.7074C33.4872 55.7078 33.4819 55.7068 33.4772 55.7044C33.4724 55.702 33.4685 55.6984 33.4657 55.6938C33.463 55.6892 33.4616 55.6838 33.4617 55.6784C33.4617 55.673 33.4633 55.6678 33.4662 55.6632C35.2451 52.992 37.373 50.486 39.4967 48.08C42.7703 44.3718 46.1682 40.78 49.6906 37.3047C52.245 34.7857 55.0442 32.4425 57.9204 30.2935C59.578 29.0551 61.3104 27.9311 63.1178 26.9215C64.4204 26.1939 65.7084 25.6062 67.198 25.2341C68.1116 25.0061 70.1554 24.758 70.4384 25.992C70.6478 26.9036 70.3156 28.0149 69.9946 28.8714C69.158 31.1017 67.9916 33.1742 66.5128 35.0427C64.7616 37.2565 62.83 39.2064 60.7716 41.2128C60.1584 41.8102 59.7486 42.3516 59.3436 43.042C59.3296 43.066 59.3362 43.0746 59.363 43.0682C59.9234 42.9326 60.5532 42.8216 61.0566 42.6038C61.28 42.5078 61.5134 42.3914 61.7572 42.2546C65.6138 40.0888 68.8846 37.2809 71.5696 33.8308C73.7544 31.0245 76.0736 26.6404 73.9784 23.132C69.4882 15.6122 55.4408 24.5368 50.955 27.9026C44.9993 32.3701 39.394 37.3626 34.2776 42.6356C32.0527 44.9286 29.8929 47.387 28.0411 50.012C26.267 52.5282 24.282 56.295 25.6615 59.3996C26.9113 62.2122 30.3611 62.9302 33.1326 62.7586C35.0953 62.6372 37.0352 62.235 38.9716 61.754C43.1795 60.708 47.3082 59.3824 51.5236 58.3702C52.4568 58.1466 53.3982 57.9658 54.3478 57.828C54.3812 57.8234 54.3888 57.8352 54.3708 57.8632Z" stroke="#C4C4C4" stroke-width="2"/>
<path d="M54.3478 57.828C53.3982 57.9658 52.4568 58.1466 51.5236 58.3702C47.3082 59.3824 43.1795 60.708 38.9716 61.754C37.0352 62.235 35.0953 62.6372 33.1326 62.7586C30.3611 62.9302 26.9113 62.2122 25.6615 59.3996C24.282 56.295 26.267 52.5282 28.0411 50.012C29.8929 47.387 32.0527 44.9286 34.2776 42.6356C39.394 37.3626 44.9993 32.3701 50.955 27.9026C55.4408 24.5368 69.4882 15.6122 73.9784 23.132C76.0736 26.6404 73.7544 31.0245 71.5696 33.8308C68.8846 37.2809 65.6138 40.0888 61.7572 42.2546C61.5134 42.3914 61.28 42.5078 61.0566 42.6038C60.5532 42.8216 59.9234 42.9326 59.363 43.0682C59.3362 43.0746 59.3296 43.066 59.3436 43.042C59.7486 42.3516 60.1584 41.8102 60.7716 41.2128C62.83 39.2064 64.7616 37.2565 66.5128 35.0427C67.9916 33.1742 69.158 31.1017 69.9946 28.8714C70.3156 28.0149 70.6478 26.9036 70.4384 25.992C70.1554 24.758 68.1116 25.0061 67.198 25.2341C65.7084 25.6062 64.4204 26.1939 63.1178 26.9215C61.3104 27.9311 59.578 29.0551 57.9204 30.2935C55.0442 32.4425 52.245 34.7857 49.6906 37.3047C46.1682 40.78 42.7703 44.3718 39.4967 48.08C37.373 50.486 35.2451 52.992 33.4662 55.6632C33.4633 55.6678 33.4617 55.673 33.4617 55.6784C33.4616 55.6838 33.463 55.6892 33.4657 55.6938C33.4685 55.6984 33.4724 55.702 33.4772 55.7044C33.4819 55.7068 33.4872 55.7078 33.4925 55.7074C34.4085 55.6292 35.3207 55.52 36.2293 55.3794C40.5842 54.7042 44.8766 53.767 49.1864 52.8618C50.8 52.5222 52.4306 52.3154 54.078 52.241C56.3938 52.137 59.7742 52.42 60.449 55.2084C61.04 57.651 59.209 60.0562 57.686 61.8092C56.5846 63.0762 55.4228 64.284 54.189 65.4236C49.4866 69.765 44.1893 73.784 38.9702 77.4116C37.3369 78.5478 35.7521 79.4978 33.874 80.1992C33.8715 80.2002 33.8687 80.2002 33.8662 80.1996C33.8636 80.1988 33.8613 80.1974 33.8596 80.1954C33.8578 80.1934 33.8568 80.1908 33.8565 80.1882C33.8562 80.1856 33.8567 80.183 33.858 80.1806C35.4379 77.6466 37.3771 75.8448 39.7512 73.5496C41.6876 71.6784 43.6118 69.7946 45.5236 67.8986C48.0934 65.3498 50.5916 62.749 52.8824 59.913C53.4442 59.218 53.9402 58.5348 54.3708 57.8632C54.3888 57.8352 54.3812 57.8234 54.3478 57.828Z" fill="#DD8560"/>
</g>
<defs>
<clipPath id="clip0_12_6411">
<rect width="50" height="60.4" fill="white" transform="translate(25 20)"/>
</clipPath>
</defs>
</svg>
